<mxfile host="65bd71144e">
    <diagram id="mxhz0sK2NCgJPXF47iWD" name="执行前">
        <mxGraphModel dx="1242" dy="562" grid="0" gridSize="10" guides="1" tooltips="1" connect="1" arrows="1" fold="1" page="1" pageScale="1" pageWidth="1169" pageHeight="1654" background="#ffffff" math="0" shadow="1">
            <root>
                <mxCell id="0"/>
                <mxCell id="1" parent="0"/>
                <mxCell id="8" style="edgeStyle=none;html=1;exitX=1;exitY=1;exitDx=0;exitDy=0;fontColor=#000000;" parent="1" source="2" edge="1">
                    <mxGeometry relative="1" as="geometry">
                        <mxPoint x="260" y="530" as="targetPoint"/>
                    </mxGeometry>
                </mxCell>
                <mxCell id="2" value="" style="rounded=0;whiteSpace=wrap;html=1;fillColor=#FFFFFF;strokeColor=#000000;" parent="1" vertex="1">
                    <mxGeometry x="50" y="40" width="210" height="470" as="geometry"/>
                </mxCell>
                <mxCell id="3" value="" style="rounded=0;whiteSpace=wrap;html=1;strokeColor=#000000;fillColor=#FFFFFF;" parent="1" vertex="1">
                    <mxGeometry x="300" y="40" width="660" height="470" as="geometry"/>
                </mxCell>
                <mxCell id="4" value="执行上下文栈（ECS）" style="text;html=1;align=center;verticalAlign=middle;resizable=0;points=[];autosize=1;strokeColor=none;fillColor=none;fontColor=#000000;" parent="1" vertex="1">
                    <mxGeometry x="85" y="10" width="140" height="30" as="geometry"/>
                </mxCell>
                <mxCell id="5" value="" style="rounded=0;whiteSpace=wrap;html=1;strokeColor=#000000;fontColor=#000000;fillColor=#FFFFFF;" parent="1" vertex="1">
                    <mxGeometry x="60" y="410" width="170" height="90" as="geometry"/>
                </mxCell>
                <mxCell id="6" value="全局执行上下文（GEC）" style="text;html=1;strokeColor=none;fillColor=none;align=center;verticalAlign=middle;whiteSpace=wrap;rounded=0;fontColor=#000000;" parent="1" vertex="1">
                    <mxGeometry x="60" y="370" width="145" height="30" as="geometry"/>
                </mxCell>
                <mxCell id="7" value="VO:GO&lt;br&gt;scope chain&lt;br&gt;this" style="rounded=0;whiteSpace=wrap;html=1;strokeColor=#0e8088;fillColor=#b0e3e6;fontColor=#000000;" parent="1" vertex="1">
                    <mxGeometry x="72.5" y="420" width="145" height="50" as="geometry"/>
                </mxCell>
                <mxCell id="11" value="Function Object(foo)&#10;0xa00&#10;" style="swimlane;strokeColor=#000000;fontColor=#000000;fillColor=#FFFFFF;startSize=50;" parent="1" vertex="1">
                    <mxGeometry x="530" y="60" width="200" height="200" as="geometry"/>
                </mxCell>
                <mxCell id="12" value="name&amp;nbsp;&lt;br&gt;length" style="text;html=1;strokeColor=none;fillColor=none;align=left;verticalAlign=top;whiteSpace=wrap;rounded=0;fontColor=#000000;" parent="1" vertex="1">
                    <mxGeometry x="547.5" y="120" width="165" height="130" as="geometry"/>
                </mxCell>
                <mxCell id="13" value="" style="endArrow=classic;html=1;fontColor=#000000;entryX=-0.004;entryY=0.22;entryDx=0;entryDy=0;strokeColor=#000000;entryPerimeter=0;" parent="1" target="11" edge="1">
                    <mxGeometry width="50" height="50" relative="1" as="geometry">
                        <mxPoint x="443" y="242" as="sourcePoint"/>
                        <mxPoint x="514" y="103" as="targetPoint"/>
                        <Array as="points">
                            <mxPoint x="445" y="242"/>
                        </Array>
                    </mxGeometry>
                </mxCell>
                <mxCell id="UE3A6txxdWsWjeW7fhDm-14" value="" style="endArrow=classic;html=1;strokeColor=#000000;fontColor=#00FF00;fillColor=default;" parent="1" edge="1">
                    <mxGeometry width="50" height="50" relative="1" as="geometry">
                        <mxPoint x="170" y="429" as="sourcePoint"/>
                        <mxPoint x="320" y="84" as="targetPoint"/>
                    </mxGeometry>
                </mxCell>
                <mxCell id="14" value="" style="rounded=0;whiteSpace=wrap;html=1;strokeColor=#000000;fontColor=#000000;fillColor=#FFFFFF;" parent="1" vertex="1">
                    <mxGeometry x="57" y="263" width="170" height="90" as="geometry"/>
                </mxCell>
                <mxCell id="15" value="函数执行上下文（FEC）" style="text;html=1;strokeColor=none;fillColor=none;align=center;verticalAlign=middle;whiteSpace=wrap;rounded=0;fontColor=#000000;" parent="1" vertex="1">
                    <mxGeometry x="57" y="223" width="145" height="30" as="geometry"/>
                </mxCell>
                <mxCell id="16" value="VO:AO" style="rounded=0;whiteSpace=wrap;html=1;strokeColor=#0e8088;fillColor=#b0e3e6;fontColor=#000000;" parent="1" vertex="1">
                    <mxGeometry x="69.5" y="273" width="145" height="50" as="geometry"/>
                </mxCell>
                <mxCell id="f9NvnZ-bQUBlyXDM8Sm6-16" value="Activation Object(AO)" style="swimlane;strokeColor=#000000;fontColor=#000000;fillColor=#FFFFFF;" parent="1" vertex="1">
                    <mxGeometry x="315" y="334.5" width="206" height="153.5" as="geometry"/>
                </mxCell>
                <mxCell id="f9NvnZ-bQUBlyXDM8Sm6-17" value="&lt;b&gt;形参&lt;/b&gt;：&lt;br&gt;num:undefined&lt;br&gt;&lt;b&gt;arguments&lt;/b&gt;: (有值)&lt;br&gt;&lt;b&gt;自己定义的变量&lt;/b&gt;：&lt;br&gt;message:undefined&lt;br&gt;age:undefined&lt;br&gt;height:undefined" style="text;html=1;strokeColor=none;fillColor=none;align=left;verticalAlign=top;whiteSpace=wrap;rounded=0;fontColor=#000000;" parent="f9NvnZ-bQUBlyXDM8Sm6-16" vertex="1">
                    <mxGeometry x="15" y="30" width="177" height="158" as="geometry"/>
                </mxCell>
                <mxCell id="f9NvnZ-bQUBlyXDM8Sm6-18" value="" style="endArrow=classic;html=1;" parent="1" edge="1">
                    <mxGeometry width="50" height="50" relative="1" as="geometry">
                        <mxPoint x="485" y="329" as="sourcePoint"/>
                        <mxPoint x="535" y="279" as="targetPoint"/>
                    </mxGeometry>
                </mxCell>
                <mxCell id="f9NvnZ-bQUBlyXDM8Sm6-19" value="" style="endArrow=classic;html=1;entryX=0.002;entryY=0.074;entryDx=0;entryDy=0;entryPerimeter=0;strokeColor=#000000;" parent="1" target="f9NvnZ-bQUBlyXDM8Sm6-16" edge="1">
                    <mxGeometry width="50" height="50" relative="1" as="geometry">
                        <mxPoint x="176" y="298" as="sourcePoint"/>
                        <mxPoint x="535" y="279" as="targetPoint"/>
                        <Array as="points">
                            <mxPoint x="176" y="298"/>
                        </Array>
                    </mxGeometry>
                </mxCell>
                <mxCell id="ioeW9pTJlO0MW8tKGyZU-16" value="Global Object(window)" style="swimlane;strokeColor=#000000;fontColor=#000000;fillColor=#FFFFFF;" parent="1" vertex="1">
                    <mxGeometry x="315" y="60" width="206.5" height="261" as="geometry"/>
                </mxCell>
                <mxCell id="ioeW9pTJlO0MW8tKGyZU-17" value="&lt;font style=&quot;font-size: 13px;&quot;&gt;Date&lt;br&gt;Array&lt;br&gt;String&lt;br&gt;Number&lt;br&gt;setTimeout&lt;br&gt;setInterval等&lt;br&gt;window&lt;/font&gt;&lt;br&gt;&lt;br&gt;&lt;b&gt;自己定义的变量:&lt;br&gt;&lt;/b&gt;foo:0xa00(内存地址)&lt;br&gt;message: &lt;font color=&quot;#00ff00&quot;&gt;'&lt;/font&gt;&lt;span style=&quot;color: rgb(0, 255, 0);&quot;&gt;Global Message&lt;/span&gt;&lt;font color=&quot;#00ff00&quot;&gt;'&lt;/font&gt;&lt;br&gt;age:undefined&lt;br&gt;height:undefined" style="text;html=1;strokeColor=none;fillColor=none;align=left;verticalAlign=top;whiteSpace=wrap;rounded=0;fontColor=#000000;" parent="ioeW9pTJlO0MW8tKGyZU-16" vertex="1">
                    <mxGeometry x="15" y="30" width="179" height="223" as="geometry"/>
                </mxCell>
                <mxCell id="UuogUiquTwUYLDMDdfia-16" value="堆内存" style="text;html=1;align=center;verticalAlign=middle;resizable=0;points=[];autosize=1;strokeColor=none;fillColor=none;fontColor=#000000;" parent="1" vertex="1">
                    <mxGeometry x="519" y="11" width="54" height="26" as="geometry"/>
                </mxCell>
            </root>
        </mxGraphModel>
    </diagram>
    <diagram name="执行过程" id="8hugnpyAa6BDli-01wuD">
        <mxGraphModel dx="1242" dy="562" grid="0" gridSize="10" guides="1" tooltips="1" connect="1" arrows="1" fold="1" page="1" pageScale="1" pageWidth="1169" pageHeight="1654" background="#ffffff" math="0" shadow="1">
            <root>
                <mxCell id="PClZlUXs_8wFYlFi2HLj-0"/>
                <mxCell id="PClZlUXs_8wFYlFi2HLj-1" parent="PClZlUXs_8wFYlFi2HLj-0"/>
                <mxCell id="PClZlUXs_8wFYlFi2HLj-2" style="edgeStyle=none;html=1;exitX=1;exitY=1;exitDx=0;exitDy=0;fontColor=#000000;" parent="PClZlUXs_8wFYlFi2HLj-1" source="PClZlUXs_8wFYlFi2HLj-3" edge="1">
                    <mxGeometry relative="1" as="geometry">
                        <mxPoint x="260" y="530" as="targetPoint"/>
                    </mxGeometry>
                </mxCell>
                <mxCell id="PClZlUXs_8wFYlFi2HLj-3" value="" style="rounded=0;whiteSpace=wrap;html=1;fillColor=#FFFFFF;strokeColor=#000000;" parent="PClZlUXs_8wFYlFi2HLj-1" vertex="1">
                    <mxGeometry x="50" y="40" width="210" height="470" as="geometry"/>
                </mxCell>
                <mxCell id="PClZlUXs_8wFYlFi2HLj-4" value="" style="rounded=0;whiteSpace=wrap;html=1;strokeColor=#000000;fillColor=#FFFFFF;" parent="PClZlUXs_8wFYlFi2HLj-1" vertex="1">
                    <mxGeometry x="300" y="40" width="660" height="470" as="geometry"/>
                </mxCell>
                <mxCell id="PClZlUXs_8wFYlFi2HLj-5" value="执行上下文栈（ECS）" style="text;html=1;align=center;verticalAlign=middle;resizable=0;points=[];autosize=1;strokeColor=none;fillColor=none;fontColor=#000000;" parent="PClZlUXs_8wFYlFi2HLj-1" vertex="1">
                    <mxGeometry x="85" y="10" width="140" height="30" as="geometry"/>
                </mxCell>
                <mxCell id="PClZlUXs_8wFYlFi2HLj-6" value="" style="rounded=0;whiteSpace=wrap;html=1;strokeColor=#000000;fontColor=#000000;fillColor=#FFFFFF;" parent="PClZlUXs_8wFYlFi2HLj-1" vertex="1">
                    <mxGeometry x="60" y="410" width="170" height="90" as="geometry"/>
                </mxCell>
                <mxCell id="PClZlUXs_8wFYlFi2HLj-7" value="全局执行上下文（GEC）" style="text;html=1;strokeColor=none;fillColor=none;align=center;verticalAlign=middle;whiteSpace=wrap;rounded=0;fontColor=#000000;" parent="PClZlUXs_8wFYlFi2HLj-1" vertex="1">
                    <mxGeometry x="60" y="370" width="145" height="30" as="geometry"/>
                </mxCell>
                <mxCell id="PClZlUXs_8wFYlFi2HLj-8" value="VO:GO&lt;br&gt;scope chain&lt;br&gt;this" style="rounded=0;whiteSpace=wrap;html=1;strokeColor=#0e8088;fillColor=#b0e3e6;fontColor=#000000;" parent="PClZlUXs_8wFYlFi2HLj-1" vertex="1">
                    <mxGeometry x="72.5" y="420" width="145" height="50" as="geometry"/>
                </mxCell>
                <mxCell id="PClZlUXs_8wFYlFi2HLj-9" value="Function Object(foo)&#10;0xa00&#10;" style="swimlane;strokeColor=#000000;fontColor=#000000;fillColor=#FFFFFF;startSize=50;" parent="PClZlUXs_8wFYlFi2HLj-1" vertex="1">
                    <mxGeometry x="530" y="60" width="200" height="200" as="geometry"/>
                </mxCell>
                <mxCell id="PClZlUXs_8wFYlFi2HLj-10" value="name&amp;nbsp;&lt;br&gt;length" style="text;html=1;strokeColor=none;fillColor=none;align=left;verticalAlign=top;whiteSpace=wrap;rounded=0;fontColor=#000000;" parent="PClZlUXs_8wFYlFi2HLj-1" vertex="1">
                    <mxGeometry x="547.5" y="120" width="165" height="130" as="geometry"/>
                </mxCell>
                <mxCell id="PClZlUXs_8wFYlFi2HLj-11" value="" style="endArrow=classic;html=1;fontColor=#000000;entryX=-0.004;entryY=0.22;entryDx=0;entryDy=0;strokeColor=#000000;entryPerimeter=0;" parent="PClZlUXs_8wFYlFi2HLj-1" target="PClZlUXs_8wFYlFi2HLj-9" edge="1">
                    <mxGeometry width="50" height="50" relative="1" as="geometry">
                        <mxPoint x="443" y="242" as="sourcePoint"/>
                        <mxPoint x="514" y="103" as="targetPoint"/>
                        <Array as="points">
                            <mxPoint x="445" y="242"/>
                        </Array>
                    </mxGeometry>
                </mxCell>
                <mxCell id="PClZlUXs_8wFYlFi2HLj-12" value="" style="endArrow=classic;html=1;strokeColor=#000000;fontColor=#00FF00;fillColor=default;" parent="PClZlUXs_8wFYlFi2HLj-1" edge="1">
                    <mxGeometry width="50" height="50" relative="1" as="geometry">
                        <mxPoint x="170" y="429" as="sourcePoint"/>
                        <mxPoint x="320" y="84" as="targetPoint"/>
                    </mxGeometry>
                </mxCell>
                <mxCell id="PClZlUXs_8wFYlFi2HLj-13" value="" style="rounded=0;whiteSpace=wrap;html=1;strokeColor=#000000;fontColor=#000000;fillColor=#FFFFFF;" parent="PClZlUXs_8wFYlFi2HLj-1" vertex="1">
                    <mxGeometry x="57" y="263" width="170" height="90" as="geometry"/>
                </mxCell>
                <mxCell id="PClZlUXs_8wFYlFi2HLj-14" value="函数执行上下文（FEC）" style="text;html=1;strokeColor=none;fillColor=none;align=center;verticalAlign=middle;whiteSpace=wrap;rounded=0;fontColor=#000000;" parent="PClZlUXs_8wFYlFi2HLj-1" vertex="1">
                    <mxGeometry x="57" y="223" width="145" height="30" as="geometry"/>
                </mxCell>
                <mxCell id="PClZlUXs_8wFYlFi2HLj-15" value="VO:AO" style="rounded=0;whiteSpace=wrap;html=1;strokeColor=#0e8088;fillColor=#b0e3e6;fontColor=#000000;" parent="PClZlUXs_8wFYlFi2HLj-1" vertex="1">
                    <mxGeometry x="69.5" y="273" width="145" height="50" as="geometry"/>
                </mxCell>
                <mxCell id="PClZlUXs_8wFYlFi2HLj-16" value="Activation Object(AO)" style="swimlane;strokeColor=#000000;fontColor=#000000;fillColor=#FFFFFF;" parent="PClZlUXs_8wFYlFi2HLj-1" vertex="1">
                    <mxGeometry x="315" y="334.5" width="206" height="153.5" as="geometry"/>
                </mxCell>
                <mxCell id="PClZlUXs_8wFYlFi2HLj-17" value="&lt;b&gt;形参&lt;/b&gt;：&lt;br&gt;num:&lt;font color=&quot;#00ff00&quot;&gt;123&lt;/font&gt;&lt;br&gt;&lt;b&gt;arguments&lt;/b&gt;: (有值)&lt;br&gt;&lt;b&gt;自己定义的变量&lt;/b&gt;：&lt;br&gt;message:&lt;font color=&quot;#00ff00&quot;&gt;'Foo Message'&lt;/font&gt;&lt;br&gt;age:&lt;font color=&quot;#00ff00&quot;&gt;18&lt;/font&gt;&lt;br&gt;height:&lt;font color=&quot;#00ff00&quot;&gt;1.88&lt;/font&gt;" style="text;html=1;strokeColor=none;fillColor=none;align=left;verticalAlign=top;whiteSpace=wrap;rounded=0;fontColor=#000000;" parent="PClZlUXs_8wFYlFi2HLj-16" vertex="1">
                    <mxGeometry x="15" y="30" width="177" height="158" as="geometry"/>
                </mxCell>
                <mxCell id="PClZlUXs_8wFYlFi2HLj-18" value="" style="endArrow=classic;html=1;" parent="PClZlUXs_8wFYlFi2HLj-1" edge="1">
                    <mxGeometry width="50" height="50" relative="1" as="geometry">
                        <mxPoint x="485" y="329" as="sourcePoint"/>
                        <mxPoint x="535" y="279" as="targetPoint"/>
                    </mxGeometry>
                </mxCell>
                <mxCell id="PClZlUXs_8wFYlFi2HLj-19" value="" style="endArrow=classic;html=1;entryX=0.002;entryY=0.074;entryDx=0;entryDy=0;entryPerimeter=0;strokeColor=#000000;" parent="PClZlUXs_8wFYlFi2HLj-1" target="PClZlUXs_8wFYlFi2HLj-16" edge="1">
                    <mxGeometry width="50" height="50" relative="1" as="geometry">
                        <mxPoint x="176" y="298" as="sourcePoint"/>
                        <mxPoint x="535" y="279" as="targetPoint"/>
                        <Array as="points">
                            <mxPoint x="176" y="298"/>
                        </Array>
                    </mxGeometry>
                </mxCell>
                <mxCell id="PClZlUXs_8wFYlFi2HLj-20" value="Global Object(window)" style="swimlane;strokeColor=#000000;fontColor=#000000;fillColor=#FFFFFF;" parent="PClZlUXs_8wFYlFi2HLj-1" vertex="1">
                    <mxGeometry x="315" y="60" width="206.5" height="261" as="geometry"/>
                </mxCell>
                <mxCell id="PClZlUXs_8wFYlFi2HLj-21" value="&lt;font style=&quot;font-size: 13px;&quot;&gt;Date&lt;br&gt;Array&lt;br&gt;String&lt;br&gt;Number&lt;br&gt;setTimeout&lt;br&gt;setInterval等&lt;br&gt;window&lt;/font&gt;&lt;br&gt;&lt;br&gt;&lt;b&gt;自己定义的变量:&lt;br&gt;&lt;/b&gt;foo:0xa00(内存地址)&lt;br&gt;message: &lt;font color=&quot;#00ff00&quot;&gt;'&lt;/font&gt;&lt;span style=&quot;color: rgb(0, 255, 0);&quot;&gt;Global Message&lt;/span&gt;&lt;font color=&quot;#00ff00&quot;&gt;'&lt;/font&gt;&lt;br&gt;age:undefined&lt;br&gt;height:undefined" style="text;html=1;strokeColor=none;fillColor=none;align=left;verticalAlign=top;whiteSpace=wrap;rounded=0;fontColor=#000000;" parent="PClZlUXs_8wFYlFi2HLj-20" vertex="1">
                    <mxGeometry x="15" y="30" width="179" height="223" as="geometry"/>
                </mxCell>
                <mxCell id="zs6-SoBoCeuXhDKib0nh-0" value="堆内存" style="text;html=1;align=center;verticalAlign=middle;resizable=0;points=[];autosize=1;strokeColor=none;fillColor=none;fontColor=#000000;" parent="PClZlUXs_8wFYlFi2HLj-1" vertex="1">
                    <mxGeometry x="519" y="11" width="54" height="26" as="geometry"/>
                </mxCell>
            </root>
        </mxGraphModel>
    </diagram>
</mxfile>